<svg xmlns="http://www.w3.org/2000/svg" width="44" height="31" fill="none" viewBox="0 0 44 31"><rect width="41.988" height="29" x="1.004" y="1.353" fill="#fff" rx="3.5"/><path stroke="#010101" stroke-linecap="round" stroke-linejoin="round" stroke-width=".974" d="M25.8943 13.2569C25.8943 12.2235 25.4838 11.2325 24.7531 10.5018C24.0224 9.77113 23.0314 9.36063 21.998 9.36063C20.9647 9.36063 19.9737 9.77113 19.243 10.5018C18.5123 11.2325 18.1018 12.2235 18.1018 13.2569C18.1018 17.8025 16.1537 19.1012 16.1537 19.1012H27.8424C27.8424 19.1012 25.8943 17.8025 25.8943 13.2569Z"/><path stroke="#010101" stroke-linecap="round" stroke-linejoin="round" stroke-width=".974" d="M23.1216 21.6987C23.0074 21.8955 22.8436 22.0589 22.6464 22.1725C22.4492 22.286 22.2257 22.3458 21.9982 22.3458C21.7706 22.3458 21.5471 22.286 21.3499 22.1725C21.1528 22.0589 20.9889 21.8955 20.8748 21.6987"/><path stroke="#010101" stroke-linecap="round" stroke-linejoin="round" stroke-width=".974" d="M15.5042 13.2569C15.5042 11.8283 15.9588 10.4646 16.803 9.36063"/><path stroke="#010101" stroke-linecap="round" stroke-linejoin="round" stroke-width=".974" d="M28.4919 13.2569C28.4919 11.8518 28.0362 10.4847 27.1932 9.36063"/><rect width="41.988" height="29" x="1.004" y="1.353" stroke="#010101" rx="3.5"/></svg>